<?xml version="1.0" standalone="no"?>
<!DOCTYPE svg PUBLIC "-//W3C//DTD SVG 20010904//EN"
 "http://www.w3.org/TR/2001/REC-SVG-20010904/DTD/svg10.dtd">
<svg version="1.0" xmlns="http://www.w3.org/2000/svg"
 width="337.000000pt" height="217.000000pt" viewBox="0 0 337.000000 217.000000"
 preserveAspectRatio="xMidYMid meet">

<g transform="translate(0.000000,217.000000) scale(0.100000,-0.100000)"
fill="#FFFFFFCC" stroke="none">
<path d="M2977 2068 c-34 -44 -93 -172 -106 -227 -5 -24 -12 -45 -15 -49 -4
-3 -68 6 -144 21 -248 49 -345 60 -557 60 -144 0 -228 -4 -300 -17 -135 -22
-384 -87 -525 -135 -63 -21 -118 -36 -122 -32 -4 4 -17 54 -28 111 -33 166
-56 196 -136 176 -66 -17 -78 -75 -48 -221 9 -42 13 -79 10 -82 -3 -4 -6 1 -6
10 0 9 -9 41 -21 72 -17 45 -25 55 -44 55 -36 0 -73 -20 -78 -42 -7 -24 8
-130 33 -233 10 -44 22 -98 25 -120 27 -159 71 -215 133 -167 18 14 23 28 24
67 l1 50 19 -55 c38 -108 49 -125 88 -128 22 -1 47 5 67 18 31 19 33 23 33 78
0 32 -13 112 -30 178 -16 65 -30 127 -30 137 0 21 88 64 227 113 70 24 83 26
98 14 24 -20 60 -97 75 -160 41 -177 121 -239 339 -264 58 -6 106 -16 108 -23
6 -17 -122 -97 -212 -132 -90 -36 -116 -54 -67 -46 18 3 46 7 62 10 43 7 37
-3 -17 -27 -117 -51 -325 -208 -438 -330 -81 -88 -148 -188 -189 -281 -27 -64
-31 -83 -31 -168 0 -89 2 -99 30 -145 23 -37 44 -56 85 -77 51 -26 62 -28 145
-25 72 4 106 11 169 37 114 46 259 145 371 253 86 83 97 98 102 136 3 23 2 42
-2 42 -4 0 -30 -20 -58 -43 -102 -86 -244 -181 -337 -226 -153 -73 -261 -68
-296 14 -18 43 -18 67 1 139 33 124 94 218 240 367 104 106 186 170 272 213
143 72 135 -13 -17 -170 -42 -44 -58 -54 -76 -50 -18 5 -40 -9 -106 -66 -114
-100 -133 -123 -133 -171 0 -187 386 57 526 333 41 81 47 173 14 210 -27 30
-68 50 -101 50 -39 0 -25 9 56 36 187 63 299 192 321 369 14 115 37 194 66
238 29 42 29 42 108 21 60 -15 199 -50 244 -60 20 -4 22 -9 17 -35 -3 -17 -21
-66 -40 -110 -19 -44 -40 -103 -47 -133 -10 -46 -9 -56 5 -79 17 -26 71 -57
100 -57 20 0 59 54 80 111 17 44 64 123 52 86 -3 -10 -9 -42 -12 -71 -6 -48
-4 -55 17 -70 51 -36 80 -16 126 86 14 31 18 34 30 22 8 -8 20 -14 28 -14 14
0 66 137 69 180 2 39 -25 31 -51 -15 -12 -22 -23 -37 -23 -33 0 5 20 69 45
144 38 117 43 138 31 150 -19 18 -61 34 -92 34 -21 0 -23 3 -14 19 5 11 10 40
10 64 0 61 -23 88 -82 94 -42 5 -47 3 -71 -29z m109 -250 c-37 -101 -74 -188
-75 -175 -1 4 6 24 15 45 9 20 26 66 39 102 33 94 44 120 50 120 2 0 -11 -42
-29 -92z m-677 -8 c10 -5 5 -12 -16 -25 -34 -20 -80 -85 -113 -160 -42 -97
-72 -151 -128 -234 l-57 -83 -42 6 c-106 14 -240 125 -347 286 -37 54 -76 106
-88 114 -41 29 -16 42 129 65 76 12 163 25 193 30 69 11 452 12 469 1z"/>
<path d="M833 1603 c-18 -7 -15 -47 10 -133 15 -52 27 -76 40 -78 23 -5 23 29
0 130 -17 76 -25 89 -50 81z"/>
<path d="M2465 1104 c-165 -30 -197 -49 -267 -166 -40 -65 -43 -75 -29 -97 8
-12 19 -11 73 7 117 39 210 61 284 68 41 4 74 4 74 0 0 -3 -41 -60 -91 -125
-74 -98 -97 -120 -122 -125 -36 -7 -122 -47 -150 -69 -10 -8 -20 -30 -23 -49
-5 -27 -1 -40 20 -65 l26 -31 -51 -92 c-59 -106 -74 -174 -44 -197 32 -22 57
-15 101 32 54 56 88 119 80 151 -6 22 10 73 23 75 3 0 69 2 146 4 116 3 156 8
230 30 123 36 178 68 261 150 92 90 118 153 112 265 -3 41 -12 89 -20 105 -36
69 -103 112 -206 134 -73 15 -330 12 -427 -5z m429 -190 c106 -27 128 -55 94
-124 -28 -55 -98 -114 -188 -158 -70 -34 -82 -37 -187 -40 -62 -2 -113 0 -113
4 1 21 19 32 72 43 64 14 87 31 64 50 -8 7 -25 9 -40 5 -40 -10 -33 13 31 91
31 39 65 90 76 114 l19 43 56 -7 c32 -3 83 -13 116 -21z"/>
<path d="M1135 1089 c-87 -46 -211 -138 -375 -279 -81 -69 -161 -134 -177
-143 -7 -5 -9 0 -6 13 5 18 0 20 -40 20 -24 0 -64 -7 -88 -15 -47 -17 -131
-92 -156 -139 -15 -28 -14 -31 7 -48 12 -10 35 -18 52 -18 l29 0 -28 -35 c-15
-20 -55 -51 -89 -70 -62 -35 -145 -115 -165 -159 -6 -13 -9 -36 -5 -50 5 -22
12 -26 45 -26 49 0 98 39 273 218 l126 130 121 7 c93 6 121 5 121 -5 0 -6 -19
-49 -41 -95 -46 -93 -48 -137 -6 -176 46 -44 164 2 269 104 50 49 57 71 26 90
-13 9 -26 3 -61 -26 -77 -63 -87 -45 -31 58 l36 65 48 0 c42 0 51 4 69 29 12
16 21 32 21 36 0 4 14 24 30 45 17 21 30 42 30 48 0 13 -55 26 -70 17 -5 -3
-16 -2 -24 2 -12 6 -9 16 16 53 30 42 62 97 129 217 33 60 38 112 11 136 -25
22 -49 21 -97 -4z m-143 -258 c-20 -33 -50 -81 -67 -108 l-30 -48 -80 -2 -80
-3 39 33 c22 17 80 67 130 109 114 97 141 103 88 19z"/>
</g>
</svg>
